  0
SECTION
  2
BLOCKS
  0
ENDSEC
  0
SECTION
  2
ENTITIES
  0
LINE
  8
0
 10
9
 20
30
 11
0
 21
30
  0
LINE
  8
0
 10
0
 20
30
 11
0
 21
0
  0
LINE
  8
0
 10
0
 20
0
 11
9
 21
0
  0
LINE
  8
0
 10
9
 20
0
 11
9
 21
30
  0
LINE
  8
0
 10
3
 20
19
 11
3
 21
27
  0
LINE
  8
0
 10
3
 20
27
 11
6
 21
27
  0
LINE
  8
0
 10
6
 20
27
 11
6
 21
19
  0
LINE
  8
0
 10
6
 20
19
 11
3
 21
19
  0
LINE
  8
0
 10
4.00557
 20
13.4783
 11
3.55954
 21
13.7056
  0
LINE
  8
0
 10
3.55954
 20
13.7056
 11
3.20557
 21
14.0595
  0
LINE
  8
0
 10
3.20557
 20
14.0595
 11
2.9783
 21
14.5056
  0
LINE
  8
0
 10
2.9783
 20
14.5056
 11
2.89999
 21
15
  0
LINE
  8
0
 10
2.89999
 20
15
 11
2.9783
 21
15.4944
  0
LINE
  8
0
 10
2.9783
 20
15.4944
 11
3.20557
 21
15.9404
  0
LINE
  8
0
 10
3.20557
 20
15.9404
 11
3.55954
 21
16.2944
  0
LINE
  8
0
 10
3.55954
 20
16.2944
 11
4.00557
 21
16.5217
  0
LINE
  8
0
 10
4.00557
 20
16.5217
 11
4.5
 21
16.6
  0
LINE
  8
0
 10
4.5
 20
16.6
 11
4.99442
 21
16.5217
  0
LINE
  8
0
 10
4.99442
 20
16.5217
 11
5.44044
 21
16.2944
  0
LINE
  8
0
 10
5.44044
 20
16.2944
 11
5.79442
 21
15.9404
  0
LINE
  8
0
 10
5.79442
 20
15.9404
 11
6.02168
 21
15.4944
  0
LINE
  8
0
 10
6.02168
 20
15.4944
 11
6.09999
 21
15
  0
LINE
  8
0
 10
6.09999
 20
15
 11
6.02168
 21
14.5056
  0
LINE
  8
0
 10
6.02168
 20
14.5056
 11
5.79442
 21
14.0595
  0
LINE
  8
0
 10
5.79442
 20
14.0595
 11
5.44044
 21
13.7056
  0
LINE
  8
0
 10
5.44044
 20
13.7056
 11
4.99442
 21
13.4783
  0
LINE
  8
0
 10
4.99442
 20
13.4783
 11
4.5
 21
13.4
  0
LINE
  8
0
 10
4.5
 20
13.4
 11
4.00557
 21
13.4783
  0
LINE
  8
0
 10
3
 20
3
 11
3
 21
11
  0
LINE
  8
0
 10
3
 20
11
 11
6
 21
11
  0
LINE
  8
0
 10
6
 20
11
 11
6
 21
3
  0
LINE
  8
0
 10
6
 20
3
 11
3
 21
3
  0
LINE
  8
0
 10
33
 20
0
 11
33
 21
24
  0
LINE
  8
0
 10
33
 20
24
 11
11
 21
24
  0
LINE
  8
0
 10
11
 20
24
 11
11
 21
16
  0
LINE
  8
0
 10
11
 20
16
 11
14
 21
16
  0
LINE
  8
0
 10
14
 20
16
 11
14
 21
13.7
  0
LINE
  8
0
 10
14
 20
13.7
 11
18
 21
13.7
  0
LINE
  8
0
 10
18
 20
13.7
 11
18
 21
14.725
  0
LINE
  8
0
 10
18
 20
14.725
 11
21.85
 21
14.725
  0
LINE
  8
0
 10
21.85
 20
14.725
 11
21.85
 21
13.7
  0
LINE
  8
0
 10
21.85
 20
13.7
 11
28
 21
13.7
  0
LINE
  8
0
 10
28
 20
13.7
 11
28
 21
10.3
  0
LINE
  8
0
 10
28
 20
10.3
 11
21.85
 21
10.3
  0
LINE
  8
0
 10
21.85
 20
10.3
 11
21.85
 21
9.27501
  0
LINE
  8
0
 10
21.85
 20
9.27501
 11
18
 21
9.27501
  0
LINE
  8
0
 10
18
 20
9.27501
 11
18
 21
10.3
  0
LINE
  8
0
 10
18
 20
10.3
 11
14
 21
10.3
  0
LINE
  8
0
 10
14
 20
10.3
 11
14
 21
8
  0
LINE
  8
0
 10
14
 20
8
 11
11
 21
8
  0
LINE
  8
0
 10
11
 20
8
 11
11
 21
0
  0
LINE
  8
0
 10
11
 20
0
 11
33
 21
0
  0
LINE
  8
0
 10
25.5
 20
2.04031
 11
23.95
 21
4.72499
  0
LINE
  8
0
 10
23.95
 20
4.72499
 11
25.5
 21
7.40967
  0
LINE
  8
0
 10
25.5
 20
7.40967
 11
28.6
 21
7.40967
  0
LINE
  8
0
 10
28.6
 20
7.40967
 11
30.15
 21
4.72499
  0
LINE
  8
0
 10
30.15
 20
4.72499
 11
28.6
 21
2.04031
  0
LINE
  8
0
 10
28.6
 20
2.04031
 11
25.5
 21
2.04031
  0
ENDSEC
  0
SECTION
  2
OBJECTS
  0
DICTIONARY
  0
ENDSEC
  0
EOF
